<?xml version="1.0" standalone="no"?>
<!DOCTYPE svg PUBLIC "-//W3C//DTD SVG 20010904//EN"
 "http://www.w3.org/TR/2001/REC-SVG-20010904/DTD/svg10.dtd">
<svg version="1.0" xmlns="http://www.w3.org/2000/svg"
 width="129.000000pt" height="129.000000pt" viewBox="0 0 129.000000 129.000000"
 preserveAspectRatio="xMidYMid meet">
<metadata>
Created by potrace 1.14, written by Peter Selinger 2001-2017
</metadata>
<g transform="translate(0.000000,129.000000) scale(0.100000,-0.100000)"
fill="#000000" stroke="none">
<path d="M297 968 c-8 -18 -75 -175 -150 -349 -76 -174 -137 -319 -137 -323 0
-17 40 -3 46 17 4 12 19 49 34 82 15 33 33 77 41 98 7 20 18 37 24 38 41 4
339 3 345 -1 5 -3 31 -57 58 -120 38 -89 54 -116 70 -118 19 -3 17 6 -29 115
-28 65 -61 141 -73 168 -12 28 -58 134 -102 237 -85 201 -100 220 -127 156z
m114 -210 c38 -89 70 -169 72 -177 2 -12 -22 -15 -156 -15 -88 -1 -160 1 -162
4 -2 3 4 21 14 40 9 19 45 104 81 187 46 110 67 149 73 138 4 -9 39 -88 78
-177z"/>
<path d="M760 646 c0 -340 1 -356 19 -356 16 0 18 10 18 111 l1 112 75 75 76
76 18 -21 c10 -12 77 -96 148 -187 80 -102 137 -166 148 -166 9 0 17 3 17 6 0
4 -24 37 -53 73 -111 137 -247 313 -247 319 0 4 65 75 145 157 117 122 140
151 123 153 -14 3 -35 -13 -70 -50 -101 -107 -365 -373 -373 -375 -5 -2 -9 93
-9 209 -1 194 -3 213 -18 216 -17 3 -18 -19 -18 -352z"/>
</g>
</svg>
